<svg width="167" height="48" viewBox="0 0 167 48" fill="none" xmlns="http://www.w3.org/2000/svg">
<path d="M24 0C37.2548 0 48 10.7452 48 24C48 37.2548 37.2548 48 24 48C10.7452 48 0 37.2548 0 24C0 10.7452 10.7452 0 24 0ZM24 12C17.3726 12 12 17.3726 12 24C12 30.6274 17.3726 36 24 36C30.6274 36 36 30.6274 36 24C36 17.3726 30.6274 12 24 12ZM24 16C28.4183 16 32 19.5817 32 24C32 28.4183 28.4183 32 24 32C19.5817 32 16 28.4183 16 24C16 19.5817 19.5817 16 24 16Z" fill="white"/>
<path d="M56.88 36L65.152 12.864H70.096L78.368 36H73.712L71.824 30.64H63.488L61.568 36H56.88ZM64.544 26.56H70.688L67.632 17.36L64.544 26.56ZM81.202 36V12.864H90.962C92.8073 12.864 94.3167 13.1573 95.49 13.744C96.6633 14.3307 97.5273 15.1467 98.082 16.192C98.6367 17.2267 98.914 18.4213 98.914 19.776C98.914 20.992 98.722 22.0213 98.338 22.864C97.9647 23.696 97.4687 24.3893 96.85 24.944C96.242 25.4987 95.5753 25.952 94.85 26.304L99.154 36H94.306L90.546 27.088H85.858V36H81.202ZM85.858 23.488H90.13C91.378 23.488 92.3647 23.152 93.09 22.48C93.826 21.808 94.194 20.944 94.194 19.888C94.194 18.8213 93.842 17.9787 93.138 17.36C92.434 16.7413 91.5433 16.432 90.466 16.432H85.858V23.488ZM102.843 36V12.864H112.603C114.449 12.864 115.958 13.1573 117.131 13.744C118.305 14.3307 119.169 15.1467 119.723 16.192C120.278 17.2267 120.555 18.4213 120.555 19.776C120.555 20.992 120.363 22.0213 119.979 22.864C119.606 23.696 119.11 24.3893 118.491 24.944C117.883 25.4987 117.217 25.952 116.491 26.304L120.795 36H115.947L112.187 27.088H107.499V36H102.843ZM107.499 23.488H111.771C113.019 23.488 114.006 23.152 114.731 22.48C115.467 21.808 115.835 20.944 115.835 19.888C115.835 18.8213 115.483 17.9787 114.779 17.36C114.075 16.7413 113.185 16.432 112.107 16.432H107.499V23.488ZM129.229 36V26.256L121.197 12.864H126.253L131.581 22.24L136.845 12.864H141.949L133.901 26.272V36H129.229ZM144.22 36V12.864H148.844L159.404 28.176V12.864H164.076V36H159.868L148.876 20.08V36H144.22Z" fill="white"/>
</svg>
